<?xml version="1.0" standalone="no"?><!DOCTYPE svg PUBLIC "-//W3C//DTD SVG 1.1//EN" "http://www.w3.org/Graphics/SVG/1.1/DTD/svg11.dtd"><svg t="1638692388490" class="icon" viewBox="0 0 1024 1024" version="1.1" xmlns="http://www.w3.org/2000/svg" p-id="5912" xmlns:xlink="http://www.w3.org/1999/xlink" width="20" height="20"><defs><style type="text/css"></style></defs><path d="M136 249.2h40v70h-40zM216.3 249.2h40v70h-40zM499.6 249.2h40v70h-40zM578 249.2h40v70h-40z" fill="#A5A5A5" p-id="5913"></path><path d="M960.8 491.1v-90c0-3.7 1.5-7 3.8-9.5 5-5.1 7.4-11.9 7.4-19 0-31.4-23.9-57.2-53.3-57.2h-827c-29.3 0-53.3 25.7-53.3 57.2V735h102.7c3.3 0 6-2.5 6.4-5.6 8.4-59.3 59.6-105 121.2-105s112.8 45.7 121.2 105c0.5 3.3 3.2 5.6 6.4 5.6h215c3.3 0 6-2.5 6.4-5.6 8.4-59.3 59.6-105 121.2-105s112.8 45.7 121.2 105c0.5 3.3 3.2 5.6 6.4 5.6h104.9V519.5c0-7.1-2.5-14-7.4-19-1.7-2.4-3.2-5.8-3.2-9.4z" fill="#FC4C4C" p-id="5914"></path><path d="M738.8 696.9c0 3.7 7.1 6.8 15.8 6.8 8.8 0 15.8-3 15.9-6.8 0-3.7-7.1-6.8-15.8-6.8-8.8 0.1-15.9 3.1-15.9 6.8z" fill="#252627" p-id="5915"></path><path d="M163.4 741.7c0 58.5 47.4 106 105.9 106s106.1-47.0 106.1-105.9v-0.1c0-58.5-47.4-106-105.9-106s-106 47.4-106.1 106c0-0.1 0 0 0 0z" fill="#333E48" p-id="5916"></path><path d="M203.9 744c0 37.2 30.1 67.4 67.3 67.4 37.2 0 67.4-30.1 67.4-67.3v-0.1c0-37.2-30.1-67.4-67.3-67.4s-67.4 30.1-67.4 67.4z" fill="#E2E1E1" p-id="5917"></path><path d="M246.2 744c0 14.5 11.7 26.2 26.2 26.2s26.2-11.7 26.2-26.2-11.7-26.2-26.2-26.2c-14.4 0-26.2 11.8-26.2 26.2z" fill="#514D46" p-id="5918"></path><path d="M255.4 696.9c0 3.7 7.1 6.8 15.8 6.8 8.8 0 15.9-3 15.9-6.8 0-3.7-7.1-6.8-15.8-6.8-8.8 0.1-15.9 3.1-15.9 6.8zM223.6 743.9c3.6 1.1 8.7-4.5 11.4-12.9 2.7-8.3 2-16.1-1.6-17.2v0.1c-3.6-1.1-8.7 4.5-11.4 12.9-2.7 8.3-2 16.1 1.6 17.1zM318.9 743.9c3.6-1.1 4.3-8.8 1.6-17.1s-7.8-14.1-11.3-12.9c-3.6 1.1-4.3 8.8-1.6 17.1 2.8 8.1 7.8 14 11.3 12.9zM309.6 768.5c-2.6-2.7-9.7 0.1-15.8 6.2-6.2 6.2-9.1 13.4-6.5 16.1 0 0.1 0.1 0.1 0.2 0.2 2.6 2.7 9.7-0.1 15.8-6.2s9.1-13.4 6.5-16.1c-0.1-0.1-0.1-0.2-0.2-0.2zM235.9 767.7c-2.8 2.4-0.6 9.8 5.1 16.4 5.6 6.6 12.5 10.1 15.4 7.8 2.8-2.4 0.6-9.8-5.1-16.4-5.6-6.7-12.5-10.2-15.4-7.8z" fill="#252627" p-id="5919"></path><path d="M633 744c0 58.5 47.4 106 105.9 106s106-47.4 106-105.9v-0.1c0-58.5-47.4-106-105.9-106-58.5-0.1-105.9 47.3-106 106z" fill="#333E48" p-id="5920"></path><path d="M673.4 746.4c0 37.2 30.1 67.4 67.3 67.4 37.2 0 67.4-30.1 67.4-67.3v-0.1c0-37.2-30.1-67.4-67.3-67.4-37.2-0.2-67.4 30-67.4 67.4 0-0.2 0-0.2 0 0z" fill="#E2E1E1" p-id="5921"></path><path d="M715.8 746.4c0 14.5 11.7 26.2 26.2 26.2s26.2-11.7 26.2-26.2-11.7-26.2-26.2-26.2-26.2 11.6-26.2 26.2z" fill="#514D46" p-id="5922"></path><path d="M725 699.2c0 3.7 7.1 6.8 15.8 6.8 8.8 0 15.9-3 15.9-6.8 0-3.7-7.1-6.8-15.8-6.8-8.8 0-15.9 3.1-15.9 6.8zM693.1 746c3.6 1.1 8.7-4.5 11.4-12.9 2.7-8.3 2-16.1-1.6-17.1-3.6-1.1-8.6 4.6-11.3 12.9-2.6 8.3-2.1 16 1.5 17.1zM788.6 746.1c3.6-1.1 4.3-8.8 1.6-17.1-2.7-8.3-7.8-14.1-11.3-12.9s-4.3 8.8-1.6 17.1c2.7 8.3 7.8 14.2 11.3 12.9zM779.1 770.7c-2.7-2.6-9.8 0.3-15.9 6.5s-8.9 13.4-6.2 16c2.7 2.6 9.8-0.3 15.9-6.5s8.9-13.4 6.2-16zM705.7 770c-2.8 2.4-0.6 9.8 5.1 16.4 5.6 6.6 12.5 10.1 15.4 7.7 2.8-2.4 0.6-9.8-5.1-16.4-5.7-6.7-12.6-10.1-15.4-7.7z" fill="#252627" p-id="5923"></path><path d="M686.8 229.3c0-6.1-9.1-11.1-20.2-11.1H90.1c-11 0-20.2 5.1-20.2 11.1v13.3c0 6.1 9.1 11.1 20.2 11.1h576.6c11 0 20.2-5.1 20.2-11.1l-0.1-13.3z" fill="#D1D3D3" p-id="5924"></path><path d="M780.6 469.9c0 10.1 7.2 18.2 16.1 18.2h117.2c8.9 0 16.1-8.2 16.1-18.2v-79.3c0-10.1-7.2-18.2-16.1-18.2H796.7c-8.9 0-16.1 8.2-16.1 18.2v79.3zM624.2 469.9c0 10.1 4.8 18.2 10.8 18.2h78.7c6 0 10.8-8.2 10.8-18.2v-79.3c0-10.1-4.8-18.2-10.8-18.2H635c-6 0-10.8 8.2-10.8 18.2v79.3zM89.7 469.9c0 10.1 4.8 18.2 10.8 18.2h78.7c6 0 10.8-8.2 10.8-18.2v-79.3c0-10.1-4.8-18.2-10.8-18.2h-78.7c-6 0-10.8 8.2-10.8 18.2v79.3z" fill="#A5E1EF" p-id="5925"></path><path d="M40.8 527.5h929.3v42.6H40.8v-42.6z" fill="#FFB819" p-id="5926"></path><path d="M293.4 410.5h245.5V423H293.4v-12.5z" fill="#FFB819" p-id="5927"></path><path d="M293.4 446.1h245.5v16H293.4v-16z" fill="#D1D3D3" p-id="5928"></path><path d="M555.3 411c0-5.5-3.4-10-7.5-10h-25.9c-4.2 0-7.5 4.5-7.5 10v52.3c0 5.5 3.4 10 7.5 10h25.9c4.2 0 7.5-4.5 7.5-10V411z m-250 0c0-5.5-3.4-10-7.5-10h-25.9c-4.2 0-7.5 4.5-7.5 10v52.3c0 5.5 3.4 10 7.5 10h25.9c4.2 0 7.5-4.5 7.5-10V411z" fill="#D1D3D3" p-id="5929"></path><path d="M849.4 310.2h-48.2l6.6-46.2c0.5-4.1 3.8-7 7.9-7h19.1c4.1 0 7.4 3 7.9 7l6.7 46.2z" fill="#FFA506" p-id="5930"></path><path d="M821.5 258.9h-6.6c-3.3 0-6.1 2.8-6.5 6.5l-5.5 43.2h6.6l5.5-43.2c0.4-3.7 3.2-6.5 6.5-6.5z" fill="#FFC866" p-id="5931"></path><path d="M795.3 308h60.3v8h-60.3z" fill="#F6F3DF" p-id="5932"></path><path d="M40.8 583.2h931.3v22.3H40.8v-22.3z" fill="#D1D3D3" p-id="5933"></path><path d="M896 441.3c-1.8 0.5-3.7-0.5-4.2-2l-17.2-53c-0.6-1.6 0.6-3.4 2.3-3.8 1.8-0.5 3.7 0.5 4.2 2l17.2 53c0.6 1.6-0.5 3.3-2.3 3.8zM890.4 475c-1.8 0.5-3.7-0.5-4.2-2L869 420c-0.6-1.6 0.6-3.4 2.3-3.8 1.8-0.5 3.7 0.5 4.2 2l17.2 53c0.6 1.7-0.5 3.4-2.3 3.8z" fill="#E1FEFF" p-id="5934"></path></svg>